# xmcd CD database file
#
# Track frame offsets:
#	150
#	21422
#	44217
#	65585
#	87225
#	108530
#	131157
#	152975
#	174960
#	196805
#	219327
#	242375
#
# Disc length: 3384 seconds
#
# Revision: 2
# Processed by: cddbd v1.4PL0 Copyright (c) Steve Scherf et al.
# Submitted via: CDex 1.50
#
DISCID=a90d360c
DTITLE=Armik - Malaga
DYEAR=1997
DGENRE=New Age
TTITLE0=Malaga
TTITLE1=Romantic Souls
TTITLE2=Andalucia La Luna
TTITLE3=Reflections of Paradise
TTITLE4=Memories of Mallorca
TTITLE5=Ritmos Flamenco
TTITLE6=Fire Dance
TTITLE7=Cartas De Amor
TTITLE8=Pacifico
TTITLE9=Isle of the Sun
TTITLE10=Moonlight Fantasy
TTITLE11=Until Next Time
EXTD=YEAR: 1997
EXTT0=
EXTT1=
EXTT2=
EXTT3=
EXTT4=
EXTT5=
EXTT6=
EXTT7=
EXTT8=
EXTT9=
EXTT10=
EXTT11=
PLAYORDER=
